# xmcd CD database file
#
# Track frame offsets:
#	150
#	28405
#	42622
#	55932
#	80505
#	104560
#	120730
#	145122
#	158437
#	177810
#	194872
#	207552
#	231877
#	250570
#	263507
#	285907
#	306217
#
# Disc length: 4467 seconds
#
# Revision: 0
# Processed by: cddbd v1.5.1PL0 Copyright (c) Steve Scherf et al.
# Submitted via: CDex 1.51
#
DISCID=f3117111
DTITLE=40 Aniversario Cubazucar - 40 Aniversario Cubazucar
DYEAR=2002
DGENRE=Salsa
TTITLE0=Feliz Cumpleanos - Chucho Valdes
TTITLE1=Maracaibo Oriental - Beny More
TTITLE2=Ritmo Azucar - Orq. Aragon
TTITLE3=Son de la Madrugada - Omara and Adalberto
TTITLE4=Comenzo la Fiesta - Original de Manzanillo
TTITLE5=Que viva Chango - Celina Gonzales
TTITLE6=Disco Azucar - Van Van
TTITLE7=La Guantanamera - Joceito Fernandez
TTITLE8=Chan Chan - Company Segundo
TTITLE9=Echale Salsita - Ignacio Pineiro
TTITLE10=Pare Cochero - Dan Den
TTITLE11=Mi Salsa Tiene Sandunga - Orq. Reve
TTITLE12=El Quatro de Tula - Eliades Ochoa
TTITLE13=El Platanal de Bartolo - Ibrahim Ferrer con los Bocucos
TTITLE14=El Basilio - Grupo Azucar
TTITLE15=Como se Mueve (la Cinturita) - Grupo Azucar
TTITLE16=Llego la Musica Cubana - Manolito Simoner
EXTD=YEAR: 2002
EXTT0=
EXTT1=
EXTT2=
EXTT3=
EXTT4=
EXTT5=
EXTT6=
EXTT7=
EXTT8=
EXTT9=
EXTT10=
EXTT11=
EXTT12=
EXTT13=
EXTT14=
EXTT15=
EXTT16=
PLAYORDER=
